<svg width="1000" height="1000" viewBox="0 0 1000 1000" fill="none" xmlns="http://www.w3.org/2000/svg">
<rect width="1000" height="1000" fill="#C4C4C4"/>
<path d="M502.831 252.874C388.593 251.331 295.331 344.593 296.874 458.831C298.398 568.392 387.607 657.601 497.167 659.124C611.425 660.687 704.667 567.425 703.105 453.187C701.601 343.607 612.392 254.398 502.831 252.874ZM626.288 572.454C625.899 572.875 625.423 573.205 624.892 573.421C624.361 573.637 623.789 573.733 623.217 573.703C622.645 573.673 622.086 573.518 621.581 573.248C621.075 572.978 620.635 572.601 620.292 572.142C611.557 560.714 600.86 550.929 588.7 543.245C563.837 527.288 532.333 518.499 499.999 518.499C467.665 518.499 436.161 527.288 411.298 543.245C399.139 550.926 388.442 560.707 379.706 572.132C379.363 572.591 378.923 572.969 378.418 573.239C377.912 573.508 377.354 573.664 376.782 573.694C376.209 573.723 375.638 573.627 375.107 573.411C374.576 573.195 374.099 572.865 373.71 572.445C345.055 541.511 328.823 501.09 328.124 458.929C326.533 363.9 404.511 284.359 499.579 284.124C594.648 283.89 671.874 361.087 671.874 455.999C671.907 499.177 655.625 540.773 626.288 572.454V572.454Z" fill="#66696E"/>
<path d="M499.999 346.625C480.741 346.625 463.329 353.842 450.956 366.957C438.583 380.072 432.401 398.207 433.798 417.67C436.63 456 466.327 487.25 499.999 487.25C533.671 487.25 563.309 456 566.2 417.68C567.645 398.402 561.512 380.434 548.934 367.074C536.512 353.891 519.13 346.625 499.999 346.625Z" fill="#66696E"/>
<path d="M276.55 729.38C277.997 730.127 278.72 731.317 278.72 732.95C278.72 733.93 278.37 734.887 277.67 735.82C276.923 736.8 275.967 737.29 274.8 737.29C274.007 737.29 273.213 737.08 272.42 736.66C270.133 735.587 267.66 735.05 265 735.05C261.733 735.05 258.887 735.75 256.46 737.15C254.033 738.503 252.167 740.44 250.86 742.96C249.553 745.433 248.9 748.28 248.9 751.5C248.9 757.007 250.37 761.183 253.31 764.03C256.297 766.877 260.193 768.3 265 768.3C267.847 768.3 270.32 767.763 272.42 766.69C273.26 766.317 274.007 766.13 274.66 766.13C275.873 766.13 276.9 766.643 277.74 767.67C278.44 768.557 278.79 769.513 278.79 770.54C278.79 771.287 278.603 771.963 278.23 772.57C277.857 773.177 277.32 773.643 276.62 773.97C272.98 775.79 269.107 776.7 265 776.7C260.427 776.7 256.227 775.743 252.4 773.83C248.573 771.87 245.517 769 243.23 765.22C240.943 761.44 239.8 756.867 239.8 751.5C239.8 746.74 240.873 742.47 243.02 738.69C245.213 734.91 248.223 731.97 252.05 729.87C255.877 727.723 260.193 726.65 265 726.65C269.153 726.65 273.003 727.56 276.55 729.38ZM305.107 737.85C309.727 737.85 312.923 739.273 314.697 742.12C316.47 744.92 317.357 748.817 317.357 753.81V771.73C317.357 772.943 316.96 773.97 316.167 774.81C315.373 775.603 314.37 776 313.157 776C311.943 776 310.94 775.603 310.147 774.81C309.353 773.97 308.957 772.943 308.957 771.73V753.81C308.957 751.243 308.443 749.237 307.417 747.79C306.437 746.297 304.687 745.55 302.167 745.55C299.553 745.55 297.5 746.343 296.007 747.93C294.56 749.47 293.837 751.43 293.837 753.81V771.73C293.837 772.943 293.44 773.97 292.647 774.81C291.853 775.603 290.85 776 289.637 776C288.423 776 287.42 775.603 286.627 774.81C285.833 773.97 285.437 772.943 285.437 771.73V728.47C285.437 727.257 285.833 726.253 286.627 725.46C287.42 724.62 288.423 724.2 289.637 724.2C290.85 724.2 291.853 724.62 292.647 725.46C293.44 726.253 293.837 727.257 293.837 728.47V743.94C295.097 742.26 296.683 740.837 298.597 739.67C300.557 738.457 302.727 737.85 305.107 737.85ZM362.432 757.31C362.432 761.043 361.592 764.403 359.912 767.39C358.232 770.33 355.922 772.617 352.982 774.25C350.089 775.883 346.892 776.7 343.392 776.7C339.846 776.7 336.626 775.883 333.732 774.25C330.839 772.617 328.552 770.33 326.872 767.39C325.192 764.403 324.352 761.043 324.352 757.31C324.352 753.577 325.192 750.24 326.872 747.3C328.552 744.313 330.839 742.003 333.732 740.37C336.626 738.69 339.846 737.85 343.392 737.85C346.892 737.85 350.089 738.69 352.982 740.37C355.922 742.003 358.232 744.313 359.912 747.3C361.592 750.24 362.432 753.577 362.432 757.31ZM354.032 757.31C354.032 755.023 353.542 752.993 352.562 751.22C351.629 749.4 350.346 748 348.712 747.02C347.126 746.04 345.352 745.55 343.392 745.55C341.432 745.55 339.636 746.04 338.002 747.02C336.416 748 335.132 749.4 334.152 751.22C333.219 752.993 332.752 755.023 332.752 757.31C332.752 759.597 333.219 761.627 334.152 763.4C335.132 765.173 336.416 766.55 338.002 767.53C339.636 768.51 341.432 769 343.392 769C345.352 769 347.126 768.51 348.712 767.53C350.346 766.55 351.629 765.173 352.562 763.4C353.542 761.627 354.032 759.597 354.032 757.31ZM405.43 757.31C405.43 761.043 404.59 764.403 402.91 767.39C401.23 770.33 398.92 772.617 395.98 774.25C393.087 775.883 389.89 776.7 386.39 776.7C382.844 776.7 379.624 775.883 376.73 774.25C373.837 772.617 371.55 770.33 369.87 767.39C368.19 764.403 367.35 761.043 367.35 757.31C367.35 753.577 368.19 750.24 369.87 747.3C371.55 744.313 373.837 742.003 376.73 740.37C379.624 738.69 382.844 737.85 386.39 737.85C389.89 737.85 393.087 738.69 395.98 740.37C398.92 742.003 401.23 744.313 402.91 747.3C404.59 750.24 405.43 753.577 405.43 757.31ZM397.03 757.31C397.03 755.023 396.54 752.993 395.56 751.22C394.627 749.4 393.344 748 391.71 747.02C390.124 746.04 388.35 745.55 386.39 745.55C384.43 745.55 382.634 746.04 381 747.02C379.414 748 378.13 749.4 377.15 751.22C376.217 752.993 375.75 755.023 375.75 757.31C375.75 759.597 376.217 761.627 377.15 763.4C378.13 765.173 379.414 766.55 381 767.53C382.634 768.51 384.43 769 386.39 769C388.35 769 390.124 768.51 391.71 767.53C393.344 766.55 394.627 765.173 395.56 763.4C396.54 761.627 397.03 759.597 397.03 757.31ZM410.278 770.19C409.858 769.63 409.648 768.93 409.648 768.09C409.648 766.877 410.255 765.85 411.468 765.01C412.122 764.59 412.798 764.38 413.498 764.38C414.478 764.38 415.412 764.823 416.298 765.71C417.698 767.157 419.145 768.23 420.638 768.93C422.178 769.63 424.022 769.98 426.168 769.98C429.808 769.84 431.628 768.463 431.628 765.85C431.628 764.497 430.998 763.47 429.738 762.77C428.525 762.07 426.612 761.37 423.998 760.67C421.292 759.923 419.075 759.177 417.348 758.43C415.668 757.683 414.198 756.563 412.938 755.07C411.725 753.53 411.118 751.477 411.118 748.91C411.118 746.67 411.748 744.733 413.008 743.1C414.315 741.42 415.995 740.137 418.048 739.25C420.148 738.317 422.365 737.85 424.698 737.85C427.078 737.85 429.458 738.293 431.838 739.18C434.218 740.067 436.085 741.373 437.438 743.1C438.045 743.847 438.348 744.687 438.348 745.62C438.348 746.693 437.905 747.58 437.018 748.28C436.365 748.793 435.618 749.05 434.778 749.05C433.752 749.05 432.912 748.723 432.258 748.07C431.418 747.043 430.322 746.227 428.968 745.62C427.662 745.013 426.168 744.71 424.488 744.71C420.942 744.71 419.168 745.993 419.168 748.56C419.168 749.587 419.495 750.427 420.148 751.08C420.802 751.687 421.618 752.177 422.598 752.55C423.625 752.877 425.048 753.297 426.868 753.81C429.388 754.51 431.488 755.233 433.168 755.98C434.848 756.727 436.272 757.87 437.438 759.41C438.605 760.95 439.188 762.98 439.188 765.5C439.188 767.787 438.512 769.793 437.158 771.52C435.805 773.2 434.055 774.483 431.908 775.37C429.808 776.257 427.638 776.7 425.398 776.7C422.318 776.7 419.448 776.187 416.788 775.16C414.128 774.133 411.958 772.477 410.278 770.19ZM479.818 756.4C479.771 757.52 479.328 758.43 478.488 759.13C477.648 759.83 476.668 760.18 475.548 760.18H452.448C453.008 762.933 454.291 765.103 456.298 766.69C458.305 768.23 460.568 769 463.088 769C465.001 769 466.495 768.837 467.568 768.51C468.641 768.137 469.481 767.763 470.088 767.39C470.741 766.97 471.185 766.69 471.418 766.55C472.258 766.13 473.051 765.92 473.798 765.92C474.778 765.92 475.618 766.27 476.318 766.97C477.018 767.67 477.368 768.487 477.368 769.42C477.368 770.68 476.715 771.823 475.408 772.85C474.101 773.923 472.351 774.833 470.158 775.58C467.965 776.327 465.748 776.7 463.508 776.7C459.588 776.7 456.158 775.883 453.218 774.25C450.325 772.617 448.085 770.377 446.498 767.53C444.911 764.637 444.118 761.393 444.118 757.8C444.118 753.787 444.958 750.263 446.638 747.23C448.318 744.197 450.535 741.887 453.288 740.3C456.041 738.667 458.981 737.85 462.108 737.85C465.188 737.85 468.081 738.69 470.788 740.37C473.541 742.05 475.735 744.313 477.368 747.16C479.001 750.007 479.818 753.087 479.818 756.4ZM462.108 745.55C456.695 745.55 453.498 748.093 452.518 753.18H470.858V752.69C470.671 750.73 469.715 749.05 467.988 747.65C466.261 746.25 464.301 745.55 462.108 745.55ZM514.353 771.73C514.353 772.943 513.956 773.97 513.163 774.81C512.369 775.603 511.366 776 510.153 776C508.939 776 507.936 775.603 507.143 774.81C506.349 773.97 505.953 772.943 505.953 771.73V742.82C505.953 741.607 506.349 740.603 507.143 739.81C507.936 738.97 508.939 738.55 510.153 738.55C511.366 738.55 512.369 738.97 513.163 739.81C513.956 740.603 514.353 741.607 514.353 742.82V771.73ZM510.083 734C508.496 734 507.376 733.743 506.723 733.23C506.069 732.717 505.743 731.807 505.743 730.5V729.17C505.743 727.863 506.093 726.953 506.793 726.44C507.493 725.927 508.613 725.67 510.153 725.67C511.786 725.67 512.929 725.927 513.583 726.44C514.236 726.953 514.563 727.863 514.563 729.17V730.5C514.563 731.853 514.213 732.787 513.513 733.3C512.859 733.767 511.716 734 510.083 734ZM566.176 737.85C570.796 737.85 573.992 739.273 575.766 742.12C577.539 744.92 578.426 748.817 578.426 753.81V771.73C578.426 772.943 578.029 773.97 577.236 774.81C576.442 775.603 575.439 776 574.226 776C573.012 776 572.009 775.603 571.216 774.81C570.422 773.97 570.026 772.943 570.026 771.73V753.81C570.026 751.243 569.512 749.237 568.486 747.79C567.506 746.297 565.756 745.55 563.236 745.55C560.622 745.55 558.569 746.343 557.076 747.93C555.629 749.47 554.906 751.43 554.906 753.81V771.73C554.906 772.943 554.509 773.97 553.716 774.81C552.922 775.603 551.919 776 550.706 776C549.492 776 548.489 775.603 547.696 774.81C546.902 773.97 546.506 772.943 546.506 771.73V753.81C546.506 751.243 545.992 749.237 544.966 747.79C543.986 746.297 542.236 745.55 539.716 745.55C537.102 745.55 535.049 746.343 533.556 747.93C532.109 749.47 531.386 751.43 531.386 753.81V771.73C531.386 772.943 530.989 773.97 530.196 774.81C529.402 775.603 528.399 776 527.186 776C525.972 776 524.969 775.603 524.176 774.81C523.382 773.97 522.986 772.943 522.986 771.73V742.82C522.986 741.607 523.382 740.603 524.176 739.81C524.969 738.97 525.972 738.55 527.186 738.55C528.399 738.55 529.402 738.97 530.196 739.81C530.989 740.603 531.386 741.607 531.386 742.82V743.94C532.646 742.26 534.232 740.837 536.146 739.67C538.106 738.457 540.276 737.85 542.656 737.85C548.536 737.85 552.292 740.417 553.926 745.55C554.999 743.59 556.609 741.817 558.756 740.23C560.949 738.643 563.422 737.85 566.176 737.85ZM617.827 737.85C619.04 737.85 620.043 738.247 620.837 739.04C621.63 739.833 622.027 740.86 622.027 742.12V771.73C622.027 772.943 621.63 773.97 620.837 774.81C620.043 775.603 619.04 776 617.827 776C616.613 776 615.61 775.603 614.817 774.81C614.07 774.017 613.673 773.013 613.627 771.8C612.46 773.153 610.873 774.32 608.867 775.3C606.907 776.233 604.83 776.7 602.637 776.7C599.417 776.7 596.5 775.883 593.887 774.25C591.273 772.57 589.197 770.26 587.657 767.32C586.163 764.38 585.417 761.043 585.417 757.31C585.417 753.577 586.163 750.24 587.657 747.3C589.15 744.313 591.18 742.003 593.747 740.37C596.36 738.69 599.23 737.85 602.357 737.85C604.597 737.85 606.697 738.27 608.657 739.11C610.617 739.903 612.273 740.93 613.627 742.19V742.12C613.627 740.907 614.023 739.903 614.817 739.11C615.61 738.27 616.613 737.85 617.827 737.85ZM603.687 769C606.72 769 609.193 767.903 611.107 765.71C613.02 763.47 613.977 760.67 613.977 757.31C613.977 753.95 613.02 751.15 611.107 748.91C609.193 746.67 606.72 745.55 603.687 745.55C600.7 745.55 598.25 746.67 596.337 748.91C594.423 751.15 593.467 753.95 593.467 757.31C593.467 760.67 594.4 763.47 596.267 765.71C598.18 767.903 600.653 769 603.687 769ZM662.14 737.85C663.353 737.85 664.357 738.247 665.15 739.04C665.943 739.833 666.34 740.86 666.34 742.12V773.27C666.34 778.963 664.567 783.163 661.02 785.87C657.52 788.623 653.063 790 647.65 790C646.25 790 644.313 789.767 641.84 789.3C639.413 788.833 637.687 788.367 636.66 787.9C634.373 786.92 633.23 785.567 633.23 783.84C633.23 783.513 633.3 783.14 633.44 782.72C633.72 781.693 634.187 780.9 634.84 780.34C635.54 779.827 636.287 779.57 637.08 779.57C637.547 779.57 637.99 779.64 638.41 779.78C638.597 779.827 639.74 780.247 641.84 781.04C643.987 781.88 645.923 782.3 647.65 782.3C651.103 782.3 653.67 781.6 655.35 780.2C657.077 778.847 657.94 776.91 657.94 774.39V771.03C656.913 772.477 655.35 773.783 653.25 774.95C651.197 776.117 648.98 776.7 646.6 776.7C643.333 776.7 640.347 775.883 637.64 774.25C634.98 772.57 632.88 770.26 631.34 767.32C629.8 764.38 629.03 761.043 629.03 757.31C629.03 753.577 629.777 750.24 631.27 747.3C632.81 744.313 634.887 742.003 637.5 740.37C640.16 738.69 643.1 737.85 646.32 737.85C648.7 737.85 650.917 738.34 652.97 739.32C655.023 740.3 656.68 741.49 657.94 742.89V742.12C657.94 740.907 658.337 739.903 659.13 739.11C659.923 738.27 660.927 737.85 662.14 737.85ZM647.65 769C650.777 769 653.32 767.903 655.28 765.71C657.287 763.47 658.29 760.67 658.29 757.31C658.29 753.95 657.287 751.15 655.28 748.91C653.32 746.67 650.777 745.55 647.65 745.55C644.523 745.55 641.98 746.67 640.02 748.91C638.06 751.15 637.08 753.95 637.08 757.31C637.08 760.67 638.06 763.47 640.02 765.71C641.98 767.903 644.523 769 647.65 769ZM707.66 756.4C707.613 757.52 707.17 758.43 706.33 759.13C705.49 759.83 704.51 760.18 703.39 760.18H680.29C680.85 762.933 682.133 765.103 684.14 766.69C686.146 768.23 688.41 769 690.93 769C692.843 769 694.336 768.837 695.41 768.51C696.483 768.137 697.323 767.763 697.93 767.39C698.583 766.97 699.026 766.69 699.26 766.55C700.1 766.13 700.893 765.92 701.64 765.92C702.62 765.92 703.46 766.27 704.16 766.97C704.86 767.67 705.21 768.487 705.21 769.42C705.21 770.68 704.556 771.823 703.25 772.85C701.943 773.923 700.193 774.833 698 775.58C695.806 776.327 693.59 776.7 691.35 776.7C687.43 776.7 684 775.883 681.06 774.25C678.166 772.617 675.926 770.377 674.34 767.53C672.753 764.637 671.96 761.393 671.96 757.8C671.96 753.787 672.8 750.263 674.48 747.23C676.16 744.197 678.376 741.887 681.13 740.3C683.883 738.667 686.823 737.85 689.95 737.85C693.03 737.85 695.923 738.69 698.63 740.37C701.383 742.05 703.576 744.313 705.21 747.16C706.843 750.007 707.66 753.087 707.66 756.4ZM689.95 745.55C684.536 745.55 681.34 748.093 680.36 753.18H698.7V752.69C698.513 750.73 697.556 749.05 695.83 747.65C694.103 746.25 692.143 745.55 689.95 745.55ZM718.375 775.93C717.022 775.93 715.972 775.58 715.225 774.88C714.525 774.133 714.175 773.083 714.175 771.73V770.54C714.175 769.187 714.525 768.16 715.225 767.46C715.972 766.713 717.022 766.34 718.375 766.34H719.285C720.639 766.34 721.665 766.713 722.365 767.46C723.112 768.16 723.485 769.187 723.485 770.54V771.73C723.485 773.083 723.112 774.133 722.365 774.88C721.665 775.58 720.639 775.93 719.285 775.93H718.375ZM735.807 775.93C734.454 775.93 733.404 775.58 732.657 774.88C731.957 774.133 731.607 773.083 731.607 771.73V770.54C731.607 769.187 731.957 768.16 732.657 767.46C733.404 766.713 734.454 766.34 735.807 766.34H736.717C738.07 766.34 739.097 766.713 739.797 767.46C740.544 768.16 740.917 769.187 740.917 770.54V771.73C740.917 773.083 740.544 774.133 739.797 774.88C739.097 775.58 738.07 775.93 736.717 775.93H735.807ZM753.239 775.93C751.885 775.93 750.835 775.58 750.089 774.88C749.389 774.133 749.039 773.083 749.039 771.73V770.54C749.039 769.187 749.389 768.16 750.089 767.46C750.835 766.713 751.885 766.34 753.239 766.34H754.149C755.502 766.34 756.529 766.713 757.229 767.46C757.975 768.16 758.349 769.187 758.349 770.54V771.73C758.349 773.083 757.975 774.133 757.229 774.88C756.529 775.58 755.502 775.93 754.149 775.93H753.239Z" fill="#66696E"/>
</svg>
