<svg width="27" height="27" viewBox="0 0 27 27" fill="none" xmlns="http://www.w3.org/2000/svg">
<mask id="mask0" mask-type="alpha" maskUnits="userSpaceOnUse" x="0" y="0" width="27" height="27">
<path fill-rule="evenodd" clip-rule="evenodd" d="M1 1H26V26H1V1Z" fill="white" stroke="white" stroke-width="2"/>
</mask>
<g mask="url(#mask0)">
<path fill-rule="evenodd" clip-rule="evenodd" d="M25.3295 11.8738C25.3289 11.8732 25.3284 11.8727 25.3278 11.8721L15.1275 1.67441C14.6927 1.23955 14.1147 1 13.4998 1C12.8849 1 12.3069 1.23936 11.8719 1.67427L1.67695 11.8667C1.67353 11.8702 1.67011 11.8738 1.6667 11.8772C0.773823 12.775 0.775386 14.2316 1.67104 15.1271C2.08026 15.5365 2.62076 15.7735 3.19863 15.7983C3.22207 15.8006 3.24575 15.8018 3.26959 15.8018H3.67612V23.3066C3.67612 24.7917 4.88469 26 6.37047 26H10.3611C10.7656 26 11.0937 25.6721 11.0937 25.2676V19.3838C11.0937 18.7061 11.6451 18.1549 12.3229 18.1549H14.6767C15.3545 18.1549 15.9059 18.7061 15.9059 19.3838V25.2676C15.9059 25.6721 16.2338 26 16.6385 26H20.6291C22.1149 26 23.3235 24.7917 23.3235 23.3066V15.8018H23.7005C24.3151 15.8018 24.8932 15.5624 25.3284 15.1275C26.225 14.2305 26.2254 12.7714 25.3295 11.8738Z" stroke="#66696E" stroke-width="2"/>
</g>
</svg>
